<svg width="1551" height="1163" viewBox="0 0 1551 1163" fill="none" xmlns="http://www.w3.org/2000/svg">
<g id="ilustracion2 1">
<g id="telephone">
<path id="Vector" d="M1167.26 276.372H1160.84V101.317C1160.84 74.4462 1150.11 48.6758 1131.02 29.6752C1111.93 10.6745 1086.04 3.39059e-05 1059.04 3.64232e-10H686.404C673.036 -3.56749e-05 659.799 2.62058 647.448 7.71221C635.097 12.8038 623.875 20.2668 614.422 29.6749C604.97 39.0831 597.471 50.2522 592.355 62.5445C587.24 74.8369 584.606 88.0117 584.606 101.317V1061.68C584.606 1074.99 587.24 1088.16 592.355 1100.46C597.471 1112.75 604.969 1123.92 614.422 1133.32C623.875 1142.73 635.097 1150.2 647.448 1155.29C659.798 1160.38 673.036 1163 686.404 1163H1059.04C1086.04 1163 1111.93 1152.33 1131.02 1133.33C1150.11 1114.32 1160.84 1088.55 1160.84 1061.68V400.979H1167.26L1167.26 276.372Z" fill="#3F3D56"/>
<path id="Vector_2" d="M1063.15 26.3593H1014.51C1016.74 31.8175 1017.6 37.7395 1016.99 43.6036C1016.39 49.4676 1014.34 55.0937 1011.04 59.9863C1007.74 64.879 1003.28 68.8879 998.048 71.6599C992.821 74.432 986.99 75.8821 981.067 75.8826H767.588C761.665 75.8821 755.833 74.432 750.606 71.66C745.379 68.8879 740.917 64.879 737.614 59.9864C734.31 55.0938 732.266 49.4676 731.662 43.6036C731.057 37.7395 731.911 31.8175 734.148 26.3593H688.717C668.555 26.3592 649.219 34.3308 634.962 48.5202C620.705 62.7097 612.696 81.9547 612.696 102.022V1060.98C612.696 1070.91 614.662 1080.75 618.482 1089.93C622.303 1099.11 627.902 1107.45 634.962 1114.48C642.021 1121.51 650.401 1127.08 659.625 1130.88C668.848 1134.68 678.734 1136.64 688.717 1136.64H1063.15C1073.13 1136.64 1083.02 1134.68 1092.24 1130.88C1101.46 1127.08 1109.84 1121.51 1116.9 1114.48C1123.96 1107.45 1129.56 1099.11 1133.38 1089.93C1137.2 1080.75 1139.17 1070.91 1139.17 1060.98V1060.98V102.022C1139.17 92.0855 1137.2 82.2466 1133.38 73.0669C1129.56 63.8871 1123.96 55.5461 1116.9 48.5202C1109.84 41.4943 1101.46 35.9211 1092.24 32.1187C1083.02 28.3163 1073.13 26.3592 1063.15 26.3593V26.3593Z" fill="white"/>
</g>
<path id="Vector_3" d="M953.494 442.183C990.738 442.183 1020.93 439.321 1020.93 435.791C1020.93 432.261 990.738 429.399 953.494 429.399C916.251 429.399 886.059 432.261 886.059 435.791C886.059 439.321 916.251 442.183 953.494 442.183Z" fill="#E6E6E6"/>
<path id="Vector_4" d="M1551 159.591H930.194V362.428H953.709V415.479L1007.01 362.428H1551V159.591Z" fill="#6C63FF"/>
<path id="Vector_5" d="M1281.59 228.279H999.291V236.806H1281.59V228.279Z" fill="white"/>
<path id="Vector_6" d="M1491.31 257.775H999.291V266.302H1491.31V257.775Z" fill="white"/>
<path id="Vector_7" d="M1490.83 287.271H999.291V295.798H1490.83V287.271Z" fill="white"/>
<path id="Vector_8" d="M1392.4 771.375H896.852V933.287H915.623V975.633L958.17 933.287H1392.4V771.375Z" fill="#6C63FF"/>
<path id="Vector_9" d="M1177.35 826.204H952.007V833.011H1177.35V826.204Z" fill="white"/>
<path id="Vector_10" d="M1344.75 849.749H952.007V856.555H1344.75V849.749Z" fill="white"/>
<path id="Vector_11" d="M1344.37 873.294H952.007V880.1H1344.37V873.294Z" fill="white"/>
<path id="Vector_12" d="M915.45 996.95C945.179 996.95 969.279 994.666 969.279 991.848C969.279 989.03 945.179 986.745 915.45 986.745C885.722 986.745 861.622 989.03 861.622 991.848C861.622 994.666 885.722 996.95 915.45 996.95Z" fill="#E6E6E6"/>
<path id="Vector_13" d="M767.245 678.69C804.489 678.69 834.68 675.828 834.68 672.297C834.68 668.767 804.489 665.905 767.245 665.905C730.002 665.905 699.811 668.767 699.811 672.297C699.811 675.828 730.002 678.69 767.245 678.69Z" fill="#E6E6E6"/>
<path id="Vector_14" d="M353.929 477.637H790.501V620.281H773.963V657.586L736.481 620.281H353.929V477.637Z" fill="#6C63FF"/>
<path id="Vector_15" d="M597.732 524.844H399.212V530.841H597.732V524.844Z" fill="white"/>
<path id="Vector_16" d="M745.216 545.587H399.212V551.583H745.216V545.587Z" fill="white"/>
<path id="Vector_17" d="M744.878 566.33H399.212V572.326H744.878V566.33Z" fill="white"/>
<path id="Vector_18" d="M141.266 825.582C143.36 829.169 146.799 831.782 150.828 832.845C154.857 833.909 159.146 833.336 162.75 831.253C166.354 829.169 168.98 825.746 170.048 821.736C171.117 817.726 170.541 813.458 168.448 809.871C168.009 809.138 167.514 808.439 166.968 807.78L180.189 713.994L180.585 711.184L183.27 692.046L183.666 689.288L182.203 689.356L156.588 690.521L149.719 690.83L148.858 708.288L143.986 806.444C141.441 808.868 139.789 812.073 139.296 815.544C138.802 819.015 139.496 822.551 141.266 825.582V825.582Z" fill="#A0616A"/>
<path id="Vector_19" d="M180.509 712.037L147.983 709.068C146.296 708.909 144.74 708.092 143.655 706.797C142.57 705.501 142.044 703.831 142.191 702.151L148.224 634.831C148.517 631.562 149.465 628.384 151.013 625.485C152.562 622.587 154.679 620.027 157.238 617.957C159.798 615.887 162.749 614.349 165.917 613.434C169.085 612.52 172.404 612.247 175.68 612.631C178.955 613.016 182.12 614.051 184.986 615.675C187.853 617.298 190.363 619.478 192.369 622.084C194.374 624.69 195.833 627.67 196.661 630.848C197.489 634.026 197.668 637.336 197.187 640.584L187.434 706.615C187.21 708.128 186.448 709.51 185.285 710.51C184.123 711.511 182.638 712.062 181.102 712.064C180.906 712.064 180.707 712.056 180.509 712.037Z" fill="#CCCCCC"/>
<path id="Vector_20" d="M155.859 657.648C152.569 648.373 152.416 638.283 155.424 628.914C158.432 619.545 164.436 611.412 172.52 605.755C184.785 597.403 201.569 594.405 219.644 615.821C255.794 658.654 265.262 705.77 265.262 705.77L191.24 717.763C191.24 717.763 166.064 687.138 155.859 657.648Z" fill="#CCCCCC"/>
<path id="Vector_21" d="M275.576 1140.13H296.68L306.72 1059.11L275.573 1059.11L275.576 1140.13Z" fill="#A0616A"/>
<path id="Vector_22" d="M337.382 1159.63L271.054 1159.63L271.053 1134.13L316.914 1134.12C319.602 1134.12 322.264 1134.65 324.747 1135.67C327.23 1136.7 329.486 1138.2 331.387 1140.09C333.287 1141.98 334.795 1144.23 335.824 1146.7C336.852 1149.17 337.382 1151.82 337.382 1154.49L337.382 1159.63V1159.63Z" fill="#2F2E41"/>
<path id="Vector_23" d="M102.066 1121.81L122.104 1128.4L157.186 1054.61L127.613 1044.88L102.066 1121.81Z" fill="#A0616A"/>
<path id="Vector_24" d="M154.599 1159.63L91.6215 1138.91L99.6639 1114.7L143.208 1129.02C145.76 1129.86 148.121 1131.19 150.156 1132.94C152.191 1134.69 153.86 1136.82 155.068 1139.21C156.276 1141.6 156.999 1144.2 157.197 1146.87C157.394 1149.53 157.062 1152.22 156.218 1154.76L154.599 1159.63Z" fill="#2F2E41"/>
<path id="Vector_25" d="M222.601 579.356C243.09 568.208 250.62 542.64 239.42 522.248C228.22 501.855 202.53 494.361 182.041 505.508C161.552 516.656 154.022 542.224 165.222 562.616C176.423 583.009 202.112 590.503 222.601 579.356Z" fill="#A0616A"/>
<path id="Vector_26" d="M239.34 1117.57L219.741 988.826C219.532 987.452 218.85 986.192 217.811 985.263C216.772 984.334 215.442 983.793 214.047 983.733C212.652 983.672 211.279 984.096 210.163 984.931C209.047 985.766 208.257 986.961 207.928 988.312L178.082 1111.01C177.612 1112.89 176.453 1114.52 174.832 1115.6C173.212 1116.67 171.247 1117.1 169.324 1116.81L86.9962 1103.64C85.9045 1103.46 84.8631 1103.06 83.9418 1102.45C83.0206 1101.84 82.2408 1101.04 81.655 1100.11C81.0692 1099.18 80.6908 1098.13 80.5454 1097.04C80.4 1095.95 80.4908 1094.84 80.8119 1093.78L188.162 741.535C188.467 740.533 188.503 739.469 188.267 738.448L184.693 723.034C184.3 721.362 184.481 719.608 185.207 718.051C185.933 716.494 187.162 715.224 188.698 714.444C203.316 707.02 240.332 691.587 268.282 708.492C269.189 709.043 269.974 709.771 270.589 710.633C271.205 711.495 271.637 712.473 271.861 713.507L355.723 1105.8C355.951 1106.86 355.949 1107.97 355.717 1109.03C355.486 1110.1 355.029 1111.1 354.379 1111.98C353.728 1112.86 352.897 1113.59 351.942 1114.12C350.987 1114.66 349.929 1114.98 348.837 1115.08L247.691 1124.1C247.457 1124.12 247.226 1124.13 246.996 1124.13C245.145 1124.12 243.355 1123.46 241.951 1122.26C240.547 1121.06 239.621 1119.39 239.34 1117.57Z" fill="#2F2E41"/>
<path id="Vector_27" d="M174.285 512.701C177.473 510.793 180.301 508.347 182.644 505.471C183.799 504.019 184.559 502.295 184.851 500.465C185.144 498.636 184.958 496.762 184.313 495.025C182.177 490.335 175.829 488.849 170.91 490.448C165.992 492.047 162.192 495.882 158.598 499.586C155.431 502.848 152.174 506.254 150.672 510.536C149.17 514.819 149.942 520.248 153.678 522.846C157.344 525.396 162.615 524.352 166.141 521.614C169.667 518.876 171.85 514.812 173.931 510.872L174.285 512.701Z" fill="#2F2E41"/>
<path id="Vector_28" d="M159.966 500.711C159.731 488.854 146.152 480.352 134.425 482.453C122.698 484.554 113.684 494.506 109.172 505.482C99.6385 528.672 106.795 555.133 115.981 578.462C125.167 601.791 136.534 625.473 135.195 650.494C134.289 664.019 129.73 677.05 121.999 688.209C114.268 699.369 103.652 708.243 91.2726 713.894C104.508 719.865 120.327 713.697 131.449 704.389C156.148 683.717 165.682 646.915 154.105 616.934C148.394 602.147 138.331 589.496 130.475 575.719C122.618 561.941 116.854 545.705 120.91 530.386C124.966 515.067 142.228 502.66 156.987 508.594L159.966 500.711Z" fill="#2F2E41"/>
<path id="Vector_29" d="M204.857 561.105C201.171 554.906 197.45 546.768 204.189 541.349C205.654 540.225 207.33 539.403 209.118 538.932C210.907 538.461 212.772 538.351 214.604 538.608C222.2 539.52 230.471 539.895 237.822 537.149C240.579 536.204 243.118 534.718 245.287 532.778C247.455 530.839 249.211 528.485 250.448 525.857C254.243 516.907 249.491 506.031 241.556 500.373C236.702 497.038 230.967 495.203 225.069 495.099C219.172 494.995 213.375 496.627 208.405 499.79C198.129 495.272 185.66 497.281 176.324 503.5C166.987 509.719 160.599 519.678 157.128 530.312C153.931 539.466 153.381 549.329 155.54 558.778C157.277 565.352 160.58 571.413 165.17 576.447C169.76 581.481 175.501 585.34 181.907 587.697C184.402 588.676 187.112 588.985 189.766 588.593C192.419 588.201 194.922 587.122 197.025 585.464C197.025 585.464 202.852 580.402 204.675 574.303C206.076 569.62 206.826 564.418 204.857 561.105Z" fill="#2F2E41"/>
<path id="Vector_30" d="M330.284 598.654C330.073 599.578 329.935 600.518 329.872 601.464L255.924 643.923L237.949 633.624L218.788 658.591L248.827 679.901C251.254 681.622 254.177 682.514 257.156 682.441C260.135 682.369 263.01 681.337 265.35 679.5L341.604 619.627C345.045 620.895 348.793 621.09 352.348 620.186C355.903 619.282 359.098 617.323 361.507 614.568C363.916 611.813 365.426 608.393 365.834 604.764C366.243 601.135 365.532 597.467 363.795 594.25C362.059 591.033 359.379 588.418 356.113 586.753C352.847 585.088 349.149 584.453 345.511 584.931C341.873 585.409 338.468 586.978 335.748 589.429C333.028 591.881 331.122 595.098 330.284 598.654V598.654Z" fill="#A0616A"/>
<path id="Vector_31" d="M253.451 645.934L229.552 676.763C228.872 677.64 228.009 678.361 227.024 678.877C226.039 679.393 224.954 679.691 223.842 679.752C222.731 679.812 221.619 679.634 220.583 679.228C219.547 678.823 218.611 678.2 217.839 677.402L190.783 649.438C186.292 645.951 183.375 640.833 182.671 635.207C181.966 629.581 183.532 623.907 187.025 619.429C190.517 614.951 195.652 612.034 201.302 611.318C206.953 610.602 212.658 612.146 217.166 615.611L251.101 634.496C252.073 635.037 252.915 635.78 253.572 636.675C254.229 637.569 254.685 638.594 254.908 639.679C255.131 640.765 255.116 641.885 254.865 642.965C254.614 644.044 254.131 645.057 253.451 645.934V645.934Z" fill="#CCCCCC"/>
<path id="Vector_32" d="M496.567 1163H2.0104C1.47721 1163 0.965853 1162.79 0.588831 1162.41C0.211809 1162.04 0 1161.53 0 1161C0 1160.47 0.211809 1159.96 0.588831 1159.58C0.965853 1159.21 1.47721 1159 2.0104 1159H496.567C497.1 1159 497.611 1159.21 497.988 1159.58C498.365 1159.96 498.577 1160.47 498.577 1161C498.577 1161.53 498.365 1162.04 497.988 1162.41C497.611 1162.79 497.1 1163 496.567 1163H496.567Z" fill="#CCCCCC"/>
</g>
</svg>
