<svg class="svg2" viewBox="0 0 584 1163" fill="none" xmlns="http://www.w3.org/2000/svg">
<g id="telephone">
<path id="Vector" d="M583.259 276.372H576.839V101.317C576.839 74.4462 566.114 48.6758 547.023 29.6752C527.932 10.6745 502.039 3.39059e-05 475.041 3.64232e-10H102.404C89.0361 -3.56749e-05 75.7987 2.62058 63.448 7.71221C51.0973 12.8038 39.8752 20.2668 30.4224 29.6749C20.9696 39.0831 13.4712 50.2522 8.35541 62.5445C3.23958 74.8369 0.606471 88.0117 0.606445 101.317V1061.68C0.606433 1074.99 3.23951 1088.16 8.35531 1100.46C13.4711 1112.75 20.9695 1123.92 30.4223 1133.32C39.8751 1142.73 51.0971 1150.2 63.4478 1155.29C75.7985 1160.38 89.0358 1163 102.404 1163H475.041C502.039 1163 527.932 1152.33 547.022 1133.33C566.113 1114.32 576.838 1088.55 576.838 1061.68V400.979H583.259L583.259 276.372Z" fill="#3F3D56"/>
<path id="Vector_2" d="M479.148 26.3593H430.507C432.744 31.8175 433.598 37.7395 432.993 43.6036C432.389 49.4676 430.345 55.0937 427.041 59.9863C423.737 64.879 419.276 68.8879 414.048 71.6599C408.821 74.432 402.99 75.8821 397.067 75.8826H183.588C177.665 75.8821 171.833 74.432 166.606 71.66C161.379 68.8879 156.917 64.879 153.614 59.9864C150.31 55.0938 148.266 49.4676 147.662 43.6036C147.057 37.7395 147.911 31.8175 150.148 26.3593H104.717C84.5549 26.3592 65.2185 34.3308 50.9617 48.5202C36.705 62.7097 28.6956 81.9547 28.6956 102.022V1060.98C28.6956 1070.91 30.6619 1080.75 34.4823 1089.93C38.3027 1099.11 43.9024 1107.45 50.9616 1114.48C58.0209 1121.51 66.4014 1127.08 75.6247 1130.88C84.848 1134.68 94.7336 1136.64 104.717 1136.64H479.148C489.132 1136.64 499.017 1134.68 508.24 1130.88C517.464 1127.08 525.844 1121.51 532.903 1114.48C539.963 1107.45 545.562 1099.11 549.383 1089.93C553.203 1080.75 555.17 1070.91 555.17 1060.98V1060.98V102.022C555.17 92.0855 553.203 82.2466 549.383 73.0669C545.562 63.8871 539.963 55.5461 532.903 48.5202C525.844 41.4943 517.464 35.9211 508.24 32.1187C499.017 28.3163 489.132 26.3592 479.148 26.3593V26.3593Z" fill="white"/>
</g>
</svg>
